<svg width="100" height="100" viewBox="0 0 100 100" fill="none" xmlns="http://www.w3.org/2000/svg">
<path d="M98.5125 20.5708C95.0333 22.1125 91.2958 23.1541 87.3667 23.625C91.4208 21.1991 94.4539 17.3811 95.9 12.8833C92.091 15.1458 87.9223 16.7383 83.575 17.5916C80.6516 14.4702 76.7794 12.4013 72.5597 11.7061C68.34 11.0109 64.0087 11.7283 60.2385 13.7469C56.4682 15.7654 53.4699 18.9723 51.709 22.8696C49.9481 26.7668 49.5231 31.1364 50.5 35.3C42.782 34.9125 35.2318 32.9064 28.3393 29.4121C21.4468 25.9177 15.366 21.0131 10.4917 15.0166C8.82501 17.8916 7.86667 21.225 7.86667 24.775C7.86482 27.9708 8.65181 31.1177 10.1578 33.9364C11.6639 36.7551 13.8423 39.1585 16.5 40.9333C13.4178 40.8352 10.4036 40.0024 7.70834 38.5041V38.7541C7.70803 43.2364 9.25848 47.5807 12.0966 51.05C14.9347 54.5192 18.8857 56.8997 23.2792 57.7875C20.4199 58.5613 17.4222 58.6753 14.5125 58.1208C15.7521 61.9775 18.1667 65.3501 21.4182 67.7663C24.6698 70.1826 28.5955 71.5216 32.6458 71.5958C25.7701 76.9934 17.2787 79.9212 8.53751 79.9083C6.9891 79.9087 5.44199 79.8183 3.90417 79.6375C12.777 85.3424 23.1056 88.3701 33.6542 88.3583C69.3625 88.3583 88.8833 58.7833 88.8833 33.1333C88.8833 32.3 88.8625 31.4583 88.825 30.625C92.6221 27.879 95.8996 24.4787 98.5042 20.5833L98.5125 20.5708V20.5708Z" fill="white"/>
</svg>
