<svg width="100" height="100" viewBox="0 0 100 100" fill="none" xmlns="http://www.w3.org/2000/svg">
<path d="M63.5 50C63.5 42.5 57.5 36.5 50 36.5C42.5 36.5 36.5 42.5 36.5 50C36.5 57.5 42.5 63.5 50 63.5C57.5 63.5 63.5 57.5 63.5 50ZM70.5 50C70.5 61.5 61.5 70.5 50 70.5C38.5 70.5 29.5 61.5 29.5 50C29.5 38.5 38.5 29.5 50 29.5C61.5 29.5 70.5 38.5 70.5 50ZM76 28.5C76 31.5 74 33.5 71 33.5C68 33.5 66 31.5 66 28.5C66 25.5 68 23.5 71 23.5C74 23.5 76 26 76 28.5ZM50 17C44 17 31.5 16.5 26.5 18.5C23 20 20 23 19 26.5C17 31.5 17.5 44 17.5 50C17.5 56 17 68.5 19 73.5C20 77 23 80 26.5 81C31.5 83 44.5 82.5 50 82.5C55.5 82.5 68.5 83 73.5 81C77 79.5 79.5 77 81 73.5C83 68 82.5 55.5 82.5 50C82.5 44.5 83 31.5 81 26.5C80 23 77 20 73.5 19C68.5 16.5 56 17 50 17ZM90 50V66.5C90 72.5 88 78.5 83.5 83.5C79 88 73 90 66.5 90H33.5C27.5 90 21.5 88 16.5 83.5C12.5 79 10 73 10 66.5V33.5C10 27 12.5 21 16.5 16.5C21.5 12.5 27.5 10 33.5 10H66.5C72.5 10 78.5 12 83.5 16.5C87.5 21 90 27 90 33.5V50Z" fill="white"/>
</svg>
